<svg width="231" height="164" xmlns="http://www.w3.org/2000/svg" xmlns:xlink="http://www.w3.org/1999/xlink" xml:space="preserve" overflow="hidden"><defs><clipPath id="clip0"><rect x="1590" y="1322" width="231" height="164"/></clipPath></defs><g clip-path="url(#clip0)" transform="translate(-1590 -1322)"><path d="M1592.5 1330.5C1592.5 1327.19 1595.19 1324.5 1598.5 1324.5L1812.5 1324.5C1815.81 1324.5 1818.5 1327.19 1818.5 1330.5L1818.5 1354.5C1818.5 1357.81 1815.81 1360.5 1812.5 1360.5L1598.5 1360.5C1595.19 1360.5 1592.5 1357.81 1592.5 1354.5Z" stroke="#2F528F" stroke-width="4.58333" stroke-miterlimit="8" fill="#FFFFFF" fill-rule="evenodd"/><path d="M1592.5 1392.33C1592.5 1389.11 1595.11 1386.5 1598.33 1386.5L1812.67 1386.5C1815.89 1386.5 1818.5 1389.11 1818.5 1392.33L1818.5 1415.67C1818.5 1418.89 1815.89 1421.5 1812.67 1421.5L1598.33 1421.5C1595.11 1421.5 1592.5 1418.89 1592.5 1415.67Z" stroke="#2F528F" stroke-width="4.58333" stroke-miterlimit="8" fill="#FFFFFF" fill-rule="evenodd"/><path d="M1592.5 1453.5C1592.5 1450.19 1595.19 1447.5 1598.5 1447.5L1812.5 1447.5C1815.81 1447.5 1818.5 1450.19 1818.5 1453.5L1818.5 1477.5C1818.5 1480.81 1815.81 1483.5 1812.5 1483.5L1598.5 1483.5C1595.19 1483.5 1592.5 1480.81 1592.5 1477.5Z" stroke="#2F528F" stroke-width="4.58333" stroke-miterlimit="8" fill="#FFFFFF" fill-rule="evenodd"/></g></svg>